<svg id="Capa_1" data-name="Capa 1" xmlns="http://www.w3.org/2000/svg" viewBox="0 0 2109 1406"><title>logo</title><path d="M956.12,531.16c-.17-13-.71-25.25,2.09-37.67,1.11-4.94,2.71-9.6,5.66-13.43,6-7.82,15.39-7.43,20.73,1.11,3.95,6.29,5.18,13.73,6.22,21.3,1.08,12.09,1.22,24.44,2.34,35.94.75,4.43,1.47,11.13,5.38,10.93,4.06-.07,4.13-6.52,4.61-10.81.75-14.44,1.46-28.56,1-43.09-.15-5.06-.31-8.81-.14-13.86.13-3.89.22-7.68,4.08-7.66s5.49,3.52,5.49,7.2c0,21.26.91,42.79-1.42,63.42a25.89,25.89,0,0,1-4.76,11.49c-5.6,7.71-15.18,6.66-20-2.37-3.24-6-3.59-13.42-3.95-20.44-.52-10.11-.74-17-1.28-27.14-.28-5.09-1.45-12.2-3.62-16.66-1.63-3.37-6.37-3.91-8.81-.26-4,7.28-5.32,14.59-5.62,23.06-.42,12-.34,24-.62,36a95.88,95.88,0,0,1-.85,10.58c-.25,1.87-1,2.93-3,3s-3.11-2.4-3.16-4.16C956.24,548.83,956.23,540,956.12,531.16Z" style="fill:#ffa833"/><path d="M1085,648.34c11.86,8,14.14,19.56,15.79,31.34.6,4.28,2.77,16.94,9.88,16.49,10.18-.65,9.54-22,9.82-31.7,1.26-43.14,1.52-302,1.45-307.78-.15-11.58-3.78-19-19.36-19.57-18.28-.23-53.29-.11-54.79-.14-2.76-.05-5-1-5.09-3.76s2.22-4.22,4.94-4.36c.57,0,38.18.7,56.43-.32,24.51,0,26.94,12.46,26.89,26.89,0,4.43-.15,175.94,0,271.79,0,34.6-1.43,59.43-2.92,63.21-.77,2.65-3.59,16.4-18.9,16.4-16.42-1.13-16.69-24.43-18.73-32.94-1.43-10.76-12.17-22-23-21.78-12.8-.08-15.15.81-15.29,13.44,0,2.41,0,6.35-.25,8.74-.26,2.15-1.79,3.19-4.27,3.29-4.49.17-4.22-6.58-4.22-8.3,0-21.75,0-45,.09-66.76,0-7.65,2-9.54,10.26-10.94a57.7,57.7,0,0,1,23.2.68c13.38,3.38,21.57,11,23.7,23.71C1102.9,629.16,1099.93,640.8,1085,648.34Zm-32.85-15c0,10.29.81,10.28,12.28,10.13,12.24,0,22-2.81,25.91-11.05,5.23-10.92,2.64-28.68-16.31-32.63-5.43-1.14-8.63-1.64-17-.55-3.92.51-5,1.7-5,5.17C1052.06,610.26,1052.19,629.52,1052.19,633.31Z" style="fill:#ffa833"/><path d="M926.9,367.05c0-7.07.45-15.63,3.38-22.34,4.53-10.34,13.67-13.82,25.67-15.36,11.3-1.46,24.3-.49,33.39-.49,6.67,0,23.91,3.11,24.64,21.4.16,20,.06,31.06.11,51.29-.2,4.12.81,15.15-5,24.55-8.2,13.26-20.84,16.84-29.76,18.29-4.07.66-13.7.85-18.68.76-2.63,0-5.07-1.58-5-4.41a4.53,4.53,0,0,1,4.26-4.59c5.14-.2,11.34-.15,17-1.29,11.29-2.28,27.78-11.47,27.84-27.9.08-22.07.05-28.65,0-52.17,0-7.64-5.11-15.43-15.79-16.33-12.75-.8-19.57-1.06-32.14-.06-8.08.64-21,8.07-20.51,23.37-1.37,50.2-.73,251.81-.51,297.89,0,8.23-.2,16.57,1.79,24.7,3,12.2,16.42,13.48,29.92,13.5,31.65,0,69.33,0,101,.18,3.66,0,9.18-.9,9.08,4.48-.09,5-5.28,4.75-8.8,4.77-19.78.08-84.71,0-94.33,0-26.12-.18-46,3.74-47-30.39C927,665.53,926.85,415.55,926.9,367.05Z" style="fill:#ffa833"/><path d="M1043.19,480.07a5.55,5.55,0,0,1,5.18-5.89,156.3,156.3,0,0,1,32.58.06c12.32,2.66,19.72,11.23,20.49,23.6.57,9.14-.8,17.91-6.81,25.56-1.42,1.8-.94,2.79.39,4.41,6.33,7.71,6.35,16.47,3.43,25.1-2.43,7.18-9.68,8.8-16.83,9.08-9.21.35-18.44.16-27.66,0-7.72-.14-10.65-1.29-10.77-8.3-.11-6,0-30.81,0-36.85C1043.05,516.83,1043.36,492.47,1043.19,480.07Zm9.75,23.71c0,6.38.1,11.4,0,17.78-.06,2.75.9,3.51,3.93,3.43,5.69.08,11.06.08,16.91-.23,9.38-.73,14.42-4.34,17.21-12.47a33.51,33.51,0,0,0,1.12-16.9c-1.26-7.12-5.71-11.7-13.75-13.28-6.75-1.33-13.25-.81-20.25-.76-3.81-.09-5.39,1.15-5.21,4.83C1053.15,492,1052.94,497.91,1052.94,503.78Zm28.88,49.76c4.79-.3,9-1.66,9.14-7.12a42.44,42.44,0,0,0-.17-7.73c-.9-5.66-3-7.05-9.26-5.84-8.38.34-17.28,1.43-25.93,1.43-2.38,0-3.23.37-3.5,2.67-1.84,15.86-1,16.68,16.19,16.69C1068.48,553.64,1077.51,553.81,1081.82,553.54Z" style="fill:#ffa833"/><path d="M1099.19,422.7c-2.79,14.13-14.1,22.93-26.82,22.93-14.36,0-23.39-8.8-26.86-22-4-15.91-3.13-30.45.78-46.15a27.78,27.78,0,0,1,26.13-19.58c13.86-.3,23.13,8.19,26.45,18.92C1103.67,392.35,1101,413.71,1099.19,422.7Zm-6.8-32.48c-2.65-16.59-11-22.91-20-22.91-8.37,0-17.22,7.65-19.18,22.45-1.37,13.67-1.16,15.55,0,29.43,1.7,9.63,8.75,17.64,19.16,17.64,10,0,15.42-7.62,17.78-17.44A100.11,100.11,0,0,0,1092.39,390.22Z" style="fill:#ffa833"/><path d="M956.19,650.78c.08-11.1.81-23.12,3.46-34.69,1.47-6.43,4-12.44,8.47-17.5,10.06-11.28,25.34-10.64,34.52,1.4,6.36,8.33,8.74,18.31,9.6,28.23,1.13,13,.72,7.59,1.42,20.62,0,.72.48,22.64.38,23.35-.35,2.62-.95,5.29-4.41,5.3s-4.34-2.41-4.49-5.17c-.29-5.41-.49-9.43-.68-14.88-.11-3.2-1.6-4.33-4.89-4.46-10,.13-18.39-.05-28.11,0-5-.17-5.75,1.64-6,5.93-.3,5.88-.37,7.78-.73,13.22-.18,2.62-1.14,5.38-4.55,5.15-3.69-.25-4-3.16-4-6.06C956.26,664.57,956.32,658.21,956.19,650.78Zm44.43-6.82c2.13,0,3.57-.8,3.33-3.28-.92-9.53-1.39-22.17-5.69-31-2.72-5.61-5.63-10.41-12.93-10.41-7.5,0-11.43,4.87-14.2,10.68-4.33,9.09-4.66,20.24-4.78,30,0,2.52,1.23,4,3.42,4C974.46,643.94,994.88,644,1000.62,644Z" style="fill:#ffa833"/></svg>