<?xml version="1.0" encoding="utf-8"?>
<!-- Generator: Adobe Illustrator 23.0.1, SVG Export Plug-In . SVG Version: 6.00 Build 0)  -->
<svg version="1.1" id="Capa_1" xmlns="http://www.w3.org/2000/svg" xmlns:xlink="http://www.w3.org/1999/xlink" x="0px" y="0px"
	 viewBox="0 0 2109 1406" style="enable-background:new 0 0 2109 1406;" xml:space="preserve">
<style type="text/css">
	.st0{fill:#FFFFFF;}
	.st1{fill:#FFA833;}
</style>
<g>
	<g>
		<g>
			<path class="st1" d="M956.12,531.16c-0.17-12.99-0.71-25.24,2.09-37.67c1.11-4.94,2.72-9.59,5.66-13.42
				c6.02-7.82,15.39-7.43,20.74,1.1c3.94,6.29,5.17,13.74,6.21,21.31c1.08,12.09,1.22,24.44,2.34,35.94
				c0.75,4.43,1.47,11.13,5.39,10.93c4.06-0.07,4.12-6.52,4.6-10.81c0.75-14.44,1.46-28.55,1.04-43.09
				c-0.15-5.06-0.31-8.81-0.14-13.86c0.13-3.88,0.23-7.68,4.09-7.66c3.86,0.02,5.48,3.52,5.48,7.2c0,21.26,0.91,42.79-1.42,63.42
				c-0.69,4.39-2.28,8.07-4.76,11.49c-5.59,7.71-15.18,6.66-20.03-2.37c-3.24-6.03-3.59-13.43-3.95-20.44
				c-0.52-10.11-0.74-17.03-1.28-27.14c-0.28-5.09-1.45-12.2-3.61-16.67c-1.63-3.37-6.38-3.91-8.82-0.26
				c-3.97,7.28-5.32,14.58-5.62,23.05c-0.42,12-0.34,24.03-0.62,36.05c-0.08,3.56-0.38,7.05-0.85,10.58c-0.25,1.87-1,2.93-3.02,3
				c-2.01,0.07-3.11-2.4-3.16-4.16C956.24,548.83,956.23,540.01,956.12,531.16z"/>
		</g>
		<g>
			<path class="st1" d="M1085.04,648.34c11.86,8.01,14.14,19.56,15.79,31.34c0.6,4.28,2.78,16.93,9.89,16.48
				c10.18-0.65,9.54-22.03,9.82-31.69c1.25-43.14,1.52-302.04,1.44-307.78c-0.15-11.58-3.77-19.03-19.35-19.57
				c-18.28-0.23-53.29-0.12-54.79-0.14c-2.75-0.05-4.97-0.99-5.08-3.76c-0.12-2.89,2.22-4.22,4.94-4.36
				c0.56-0.03,38.18,0.69,56.43-0.32c24.51,0.05,26.94,12.46,26.88,26.89c-0.02,4.43-0.15,175.94,0,271.79
				c0.05,34.6-1.43,59.43-2.92,63.21c-0.77,2.65-3.59,16.4-18.9,16.39c-16.41-1.13-16.69-24.43-18.73-32.94
				c-1.43-10.76-12.17-22.02-22.96-21.78c-12.79-0.08-15.15,0.81-15.29,13.44c-0.03,2.41,0.04,6.35-0.25,8.74
				c-0.26,2.15-1.79,3.19-4.27,3.29c-4.49,0.18-4.23-6.58-4.23-8.3c0-21.75,0.02-45.01,0.09-66.76c0.03-7.65,2.02-9.54,10.27-10.94
				c7.55-1.28,15.84-1.18,23.2,0.68c13.37,3.37,21.57,10.96,23.69,23.71C1102.9,629.16,1099.93,640.8,1085.04,648.34z
				 M1052.19,633.31c0,10.28,0.82,10.28,12.28,10.13c12.24,0.03,21.98-2.81,25.92-11.05c5.23-10.92,2.63-28.68-16.31-32.64
				c-5.43-1.13-8.63-1.64-17-0.55c-3.92,0.51-4.96,1.7-4.98,5.17C1052.06,610.26,1052.19,629.52,1052.19,633.31z"/>
		</g>
		<g>
			<path class="st1" d="M926.9,367.05c0.01-7.08,0.45-15.63,3.39-22.34c4.52-10.34,13.67-13.82,25.66-15.36
				c11.3-1.45,24.3-0.48,33.39-0.48c6.66,0,23.9,3.11,24.63,21.4c0.16,20.03,0.06,31.05,0.11,51.28c-0.2,4.12,0.82,15.15-4.99,24.55
				c-8.2,13.26-20.84,16.84-29.76,18.29c-4.07,0.66-13.7,0.85-18.68,0.76c-2.63-0.05-5.07-1.58-5.05-4.41
				c0.02-2.52,1.93-4.49,4.26-4.58c5.14-0.21,11.35-0.15,16.98-1.29c11.29-2.28,27.77-11.47,27.83-27.9
				c0.08-22.06,0.05-28.65,0-52.17c-0.02-7.63-5.11-15.43-15.78-16.33c-12.76-0.8-19.58-1.06-32.15-0.06
				c-8.08,0.64-21,8.07-20.51,23.38c-1.37,50.2-0.73,251.81-0.51,297.89c0.04,8.23-0.2,16.57,1.79,24.71
				c2.98,12.19,16.41,13.48,29.91,13.5c31.65,0.05,69.33,0.04,100.98,0.18c3.66,0.02,9.18-0.9,9.09,4.48
				c-0.09,5.03-5.28,4.75-8.8,4.76c-19.78,0.08-84.72,0-94.34,0c-26.11-0.17-45.94,3.74-46.99-30.39
				C927.03,665.53,926.85,415.55,926.9,367.05z"/>
		</g>
		<g>
			<path class="st1" d="M1043.19,480.07c-0.04-3.27,2.08-5.6,5.18-5.89c10.85-0.99,21.67-1.22,32.57,0.06
				c12.32,2.66,19.72,11.22,20.49,23.6c0.57,9.14-0.8,17.91-6.81,25.56c-1.41,1.8-0.94,2.79,0.39,4.41
				c6.33,7.71,6.35,16.48,3.43,25.11c-2.43,7.18-9.67,8.8-16.83,9.07c-9.2,0.35-18.44,0.17-27.66,0
				c-7.72-0.14-10.64-1.29-10.77-8.31c-0.11-6.03,0-30.81,0-36.84C1043.05,516.83,1043.36,492.47,1043.19,480.07z M1052.94,503.78
				c0,6.38,0.09,11.4-0.04,17.78c-0.06,2.75,0.91,3.51,3.94,3.43c5.69,0.08,11.06,0.08,16.91-0.24c9.38-0.72,14.42-4.33,17.21-12.46
				c1.9-5.54,2.12-11.26,1.12-16.9c-1.26-7.12-5.71-11.7-13.75-13.28c-6.75-1.32-13.24-0.81-20.25-0.75
				c-3.8-0.09-5.39,1.14-5.2,4.83C1053.15,492.04,1052.94,497.91,1052.94,503.78z M1081.82,553.54c4.79-0.3,9.02-1.65,9.15-7.11
				c0.06-2.58,0.23-5.2-0.17-7.73c-0.9-5.67-3.06-7.06-9.27-5.85c-8.37,0.34-17.27,1.43-25.93,1.43c-2.38,0-3.23,0.37-3.5,2.67
				c-1.83,15.86-1.03,16.67,16.19,16.68C1068.48,553.64,1077.51,553.81,1081.82,553.54z"/>
		</g>
		<g>
			<path class="st1" d="M1099.19,422.7c-2.79,14.13-14.1,22.93-26.82,22.93c-14.36,0-23.39-8.79-26.86-21.97
				c-4.04-15.91-3.13-30.45,0.78-46.15c4.19-12.73,15.09-19.35,26.13-19.58c13.86-0.29,23.13,8.19,26.45,18.93
				C1103.67,392.35,1100.97,413.71,1099.19,422.7z M1092.39,390.22c-2.65-16.6-11.01-22.92-19.97-22.92
				c-8.37,0-17.22,7.65-19.18,22.46c-1.37,13.67-1.16,15.55,0.03,29.43c1.69,9.63,8.75,17.64,19.16,17.64
				c10.05,0,15.43-7.63,17.78-17.44C1092.02,411.77,1093.25,400.28,1092.39,390.22z"/>
		</g>
		<g>
			<path class="st1" d="M956.19,650.78c0.07-11.1,0.8-23.11,3.45-34.69c1.47-6.43,3.96-12.44,8.47-17.5
				c10.06-11.27,25.34-10.64,34.52,1.4c6.36,8.34,8.74,18.32,9.6,28.24c1.13,12.96,0.71,7.59,1.41,20.61
				c0.04,0.72,0.48,22.64,0.39,23.36c-0.36,2.62-0.95,5.28-4.41,5.3c-3.37,0.01-4.34-2.41-4.49-5.17
				c-0.29-5.42-0.49-9.43-0.68-14.88c-0.11-3.2-1.6-4.33-4.9-4.46c-10.01,0.13-18.39-0.06-28.11,0c-4.95-0.17-5.74,1.64-5.96,5.93
				c-0.3,5.88-0.38,7.78-0.74,13.22c-0.17,2.62-1.14,5.38-4.55,5.15c-3.69-0.25-4.02-3.15-4-6.06
				C956.26,664.57,956.32,658.21,956.19,650.78z M1000.62,643.96c2.13-0.01,3.57-0.81,3.33-3.29c-0.92-9.52-1.38-22.16-5.68-31.02
				c-2.72-5.61-5.63-10.41-12.93-10.4c-7.5,0-11.43,4.87-14.2,10.67c-4.33,9.09-4.66,20.24-4.78,30.03c-0.03,2.53,1.23,4.03,3.42,4
				C974.46,643.94,994.88,643.98,1000.62,643.96z"/>
		</g>
	</g>
</g>
</svg>
